<?xml version="1.0" standalone="no"?>
<!DOCTYPE svg PUBLIC "-//W3C//DTD SVG 20010904//EN"
 "http://www.w3.org/TR/2001/REC-SVG-20010904/DTD/svg10.dtd">
<svg version="1.0" xmlns="http://www.w3.org/2000/svg"
 width="260.000000pt" height="260.000000pt" viewBox="0 0 260.000000 260.000000"
 preserveAspectRatio="xMidYMid meet">
<metadata>
Created by potrace 1.11, written by Peter Selinger 2001-2013
</metadata>
<g transform="translate(0.000000,260.000000) scale(0.100000,-0.100000)"
fill="#000000" stroke="none">
<path d="M0 1300 l0 -1300 1300 0 1300 0 0 1300 0 1300 -1300 0 -1300 0 0
-1300z m780 675 c0 -3 34 -191 74 -417 41 -227 80 -450 87 -495 7 -46 15 -83
19 -83 4 0 12 37 19 83 7 45 50 268 97 494 46 227 84 415 84 418 0 3 74 5 164
5 l165 0 10 -52 c41 -199 133 -708 148 -812 9 -69 19 -126 22 -126 4 0 16 66
29 148 21 132 145 781 158 825 5 15 21 17 160 17 127 0 155 -3 152 -14 -2 -7
-79 -311 -173 -675 l-170 -661 -167 0 -166 0 -10 48 c-54 249 -150 776 -165
897 -5 42 -11 20 -36 -120 -11 -66 -55 -279 -98 -473 l-77 -352 -169 2 -170 3
-153 645 c-84 355 -156 657 -159 673 l-7 27 166 0 c91 0 166 -2 166 -5z"/>
</g>
</svg>
